<?xml version="1.0" standalone="no"?>
<!DOCTYPE svg PUBLIC "-//W3C//DTD SVG 20010904//EN"
 "http://www.w3.org/TR/2001/REC-SVG-20010904/DTD/svg10.dtd">
<svg version="1.0" xmlns="http://www.w3.org/2000/svg"
 width="236.000000pt" height="236.000000pt" viewBox="0 0 236.000000 236.000000"
 preserveAspectRatio="xMidYMid meet">
<metadata>
Created by potrace 1.14, written by Peter Selinger 2001-2017
</metadata>
<g transform="translate(0.000000,236.000000) scale(0.100000,-0.100000)"
fill="#000000" stroke="none">
<path d="M991 2312 c-6 -20 -11 -41 -12 -47 -1 -5 -6 -25 -10 -42 -5 -25 -3
-33 7 -33 7 0 17 6 21 14 11 18 50 29 58 16 7 -11 45 -14 45 -2 -1 15 -76 127
-87 129 -7 2 -17 -14 -22 -35z m42 -48 c-6 -17 -23 -9 -23 11 0 8 6 12 14 9 8
-3 12 -12 9 -20z"/>
<path d="M1413 2322 c-7 -5 -14 -20 -15 -35 -1 -15 -5 -27 -8 -27 -3 0 -6 -16
-8 -36 -2 -29 1 -35 15 -32 10 2 18 10 18 18 0 9 10 15 25 15 29 0 63 32 55
53 -3 7 -5 17 -5 22 0 6 -54 31 -64 30 -1 0 -7 -4 -13 -8z m47 -47 c0 -8 -7
-15 -15 -15 -8 0 -15 7 -15 15 0 8 7 15 15 15 8 0 15 -7 15 -15z"/>
<path d="M784 2265 c-33 -33 -31 -71 7 -106 30 -28 31 -28 64 -12 18 9 38 26
43 38 32 70 -60 134 -114 80z m84 -41 c2 -12 -4 -29 -14 -38 -14 -15 -19 -15
-38 -3 -38 26 -22 70 23 65 18 -2 27 -10 29 -24z"/>
<path d="M1576 2272 c-15 -25 -45 -115 -41 -122 8 -13 35 0 35 16 0 26 19 14
22 -13 2 -17 9 -28 18 -28 10 0 14 8 12 27 -2 19 2 28 17 33 21 6 28 39 13 61
-16 25 -66 42 -76 26z m49 -41 c7 -12 -12 -24 -25 -16 -11 7 -4 25 10 25 5 0
11 -4 15 -9z"/>
<path d="M606 2192 c-6 -11 4 -52 13 -52 4 0 13 -16 21 -35 16 -40 26 -42 69
-17 53 30 38 52 -19 28 -11 -4 -22 7 -39 39 -23 44 -35 53 -45 37z"/>
<path d="M1751 2189 c-77 -29 -61 -138 20 -142 27 -2 37 4 55 31 32 46 24 81
-24 106 -19 9 -35 11 -51 5z m47 -41 c28 -28 1 -75 -37 -63 -22 7 -33 28 -25
49 5 13 16 19 45 25 3 0 10 -4 17 -11z"/>
<path d="M473 2092 c-17 -11 22 -142 42 -142 9 0 15 10 15 24 0 28 12 39 48
40 42 2 34 19 -22 54 -57 34 -64 36 -83 24z m57 -51 c0 -17 -18 -21 -24 -6 -3
9 0 15 9 15 8 0 15 -4 15 -9z"/>
<path d="M1892 2034 c-22 -25 -38 -51 -36 -58 2 -6 19 -21 36 -33 24 -17 36
-20 56 -12 55 21 68 79 27 123 -13 14 -28 26 -33 26 -5 0 -27 -21 -50 -46z
m78 -33 c-1 -13 -16 -29 -30 -31 -46 -7 -52 11 -18 47 21 23 23 23 35 7 7 -10
13 -20 13 -23z"/>
<path d="M351 1987 c-8 -8 -4 -18 16 -39 l26 -27 -29 5 c-16 2 -34 6 -41 9 -6
2 -18 -4 -27 -14 -16 -17 -14 -21 31 -60 26 -22 53 -41 60 -41 22 0 14 23 -14
47 l-28 23 52 -5 c73 -9 77 7 15 65 -36 35 -53 45 -61 37z"/>
<path d="M2030 1893 c-35 -32 -41 -42 -35 -64 10 -40 45 -55 81 -35 56 30 80
54 67 67 -9 9 -19 6 -45 -12 -18 -13 -34 -27 -36 -31 -5 -11 -32 3 -32 18 0 7
16 26 35 41 36 29 46 53 21 53 -7 0 -32 -17 -56 -37z"/>
<path d="M225 1820 c-6 -9 8 -44 16 -40 7 3 69 -35 69 -42 0 -14 28 -8 33 6 3
8 -12 25 -41 43 -69 44 -70 44 -77 33z"/>
<path d="M1278 1782 c-7 -10 -26 -28 -42 -40 -29 -22 -50 -50 -62 -84 -3 -10
-9 -18 -13 -18 -4 0 -6 -28 -6 -63 l1 -63 -40 14 c-61 21 -137 10 -202 -29
-30 -18 -54 -37 -54 -42 0 -4 -4 -6 -8 -3 -5 3 -9 -1 -9 -9 0 -8 4 -15 9 -15
5 0 6 -4 3 -10 -3 -5 -2 -10 3 -10 4 0 17 -9 29 -19 27 -25 79 -52 87 -44 3 4
6 1 6 -6 0 -7 4 -10 9 -7 5 4 21 2 35 -4 17 -6 26 -6 26 1 0 5 6 9 13 7 19 -4
100 24 120 43 22 20 85 15 107 -7 13 -14 12 -18 -10 -32 -13 -10 -33 -25 -42
-34 -10 -10 -22 -18 -28 -18 -5 0 -10 -5 -10 -12 0 -6 -3 -9 -6 -6 -3 3 -22
-9 -42 -28 -20 -19 -40 -34 -44 -34 -5 0 -18 -9 -30 -19 -13 -11 -47 -38 -75
-60 -29 -23 -61 -54 -70 -69 -10 -15 -20 -29 -24 -32 -21 -17 -47 -165 -32
-185 17 -23 72 -39 141 -41 51 -2 71 0 66 8 -4 7 -3 8 4 4 7 -4 34 5 61 19 47
26 49 26 86 10 39 -16 112 -18 121 -3 3 5 9 6 14 3 5 -3 15 4 23 16 14 19 13
24 -19 66 l-35 46 29 17 c74 45 138 167 133 254 -2 29 0 37 11 31 7 -4 6 -1
-2 7 -9 7 -15 20 -15 28 1 8 -3 21 -8 28 -5 6 -6 12 -2 12 4 0 2 7 -5 15 -7 8
-9 15 -6 15 12 0 -70 89 -83 91 -3 0 -15 3 -26 5 -11 3 -26 6 -32 6 -14 1 -18
28 -5 28 4 0 14 17 22 38 16 42 22 162 9 162 -5 0 -9 9 -9 20 0 11 -4 20 -9
20 -5 0 -12 11 -15 25 -7 29 -29 33 -48 7z m-166 -299 c7 -4 15 -8 18 -8 3 0
14 -7 25 -15 24 -18 30 -40 11 -40 -8 0 -17 -7 -20 -16 -4 -9 -9 -14 -13 -11
-3 3 -20 0 -37 -7 -36 -15 -93 -14 -124 3 -12 6 -22 9 -22 6 0 -3 -12 5 -27
19 -15 14 -25 27 -23 29 27 20 69 42 84 44 11 2 21 5 23 7 7 6 92 -2 105 -11z
m322 -115 c1 -7 5 -19 9 -25 5 -7 9 -31 10 -53 1 -22 6 -40 12 -40 5 0 3 -5
-5 -10 -11 -7 -11 -10 -2 -10 8 0 10 -5 5 -12 -4 -7 -9 -22 -11 -33 -6 -43
-46 -107 -89 -145 -36 -31 -49 -38 -63 -30 -31 17 -60 11 -98 -17 -63 -48 -72
-64 -42 -83 13 -8 12 -11 -5 -24 -11 -9 -22 -16 -25 -16 -3 -1 -14 -3 -24 -5
-10 -2 -22 -7 -25 -12 -5 -7 -83 -9 -103 -3 -5 1 -11 3 -15 4 -48 11 -60 29
-46 66 3 8 7 22 8 30 4 27 10 44 20 59 19 26 90 96 124 121 19 14 40 30 46 37
7 7 15 9 19 6 3 -4 6 -1 6 5 0 6 9 14 20 17 11 4 18 10 15 15 -3 5 3 11 14 15
10 3 29 15 42 26 13 12 50 39 82 61 31 23 57 45 57 50 0 5 5 6 10 3 6 -3 10
-2 10 4 0 5 8 11 18 13 20 5 23 4 26 -14z m-134 -410 c0 -3 12 -21 26 -38 15
-17 23 -34 20 -38 -22 -22 -128 4 -140 34 -7 18 4 45 15 39 4 -3 14 3 20 13
10 16 16 17 35 8 13 -6 24 -14 24 -18z"/>
<path d="M973 998 c-11 -19 -13 -42 -4 -56 9 -15 44 -23 60 -13 16 11 23 52
10 68 -14 17 -55 17 -66 1z"/>
<path d="M2114 1733 c-16 -16 -23 -32 -20 -48 5 -28 24 -65 34 -66 4 0 15 -2
24 -4 28 -5 30 25 3 35 -34 13 -34 53 -1 68 19 9 27 7 39 -6 8 -9 12 -23 10
-30 -3 -7 -2 -20 1 -28 11 -28 36 3 32 38 -7 63 -76 87 -122 41z"/>
<path d="M161 1701 c-11 -11 -18 -28 -16 -38 2 -10 4 -21 4 -25 1 -4 10 -12
20 -18 16 -8 26 -5 51 16 38 33 52 24 16 -10 -29 -26 -21 -42 15 -31 30 10 43
52 24 81 -17 26 -36 24 -72 -9 -13 -11 -26 -17 -30 -14 -3 4 3 16 15 27 26 25
26 26 7 34 -9 3 -24 -3 -34 -13z"/>
<path d="M2269 1577 c-3 -28 -4 -32 -14 -35 -5 -2 -15 -8 -21 -13 -7 -5 -22
-12 -34 -14 -30 -6 -36 -13 -23 -26 7 -7 23 -7 54 1 37 10 45 10 55 -5 8 -11
20 -15 30 -11 12 4 13 10 6 19 -6 6 -13 29 -17 49 -7 35 -34 61 -36 35z"/>
<path d="M65 1440 c-9 -14 4 -32 19 -27 7 3 19 1 27 -3 10 -7 5 -13 -22 -24
-57 -24 -60 -51 -7 -61 69 -14 98 -15 98 -5 0 5 0 13 0 18 0 4 -12 7 -27 7
-38 1 -39 20 -2 31 30 9 59 37 48 48 -4 5 -31 11 -96 22 -17 3 -34 0 -38 -6z"/>
<path d="M2232 1382 c-52 -40 -13 -133 52 -126 31 3 69 32 60 45 -3 5 0 9 6 9
13 0 9 31 -7 47 -6 7 -13 17 -15 22 -1 5 -19 12 -38 15 -25 5 -41 1 -58 -12z
m82 -39 c8 -21 -11 -53 -32 -53 -22 0 -42 19 -42 38 0 36 62 48 74 15z"/>
<path d="M105 1228 c-27 -11 -54 -23 -61 -28 -6 -6 -15 -5 -22 2 -6 6 -14 9
-18 6 -7 -7 9 -40 19 -39 4 0 28 -9 54 -20 69 -30 103 -35 103 -16 0 8 -7 17
-15 21 -8 3 -15 16 -15 30 0 13 7 26 15 30 18 7 20 36 3 35 -7 -1 -35 -10 -63
-21z m7 -50 c-6 -6 -15 -8 -19 -4 -4 4 -1 11 7 16 19 12 27 3 12 -12z"/>
<path d="M2232 1178 c-10 -12 -16 -41 -13 -64 0 -6 12 -16 26 -22 27 -13 48 1
60 38 3 11 11 20 16 20 12 0 12 -27 -1 -35 -5 -3 -7 -12 -4 -20 10 -25 44 6
44 40 0 60 -71 68 -86 10 -3 -14 -10 -25 -15 -25 -12 0 -11 37 1 45 6 3 10 10
10 16 0 13 -26 11 -38 -3z"/>
<path d="M159 1062 c-1 -4 -2 -20 -3 -36 -1 -26 -5 -30 -40 -32 -41 -4 -69
-20 -60 -36 3 -5 22 -6 42 -3 21 4 46 8 58 9 35 5 45 15 37 44 -3 15 -6 32 -6
39 0 13 -26 27 -28 15z"/>
<path d="M2184 919 c-7 -12 12 -29 33 -29 6 0 14 -4 17 -9 3 -5 -8 -8 -24 -7
-17 1 -36 -4 -42 -12 -10 -11 -5 -20 22 -43 34 -28 34 -29 7 -19 -39 14 -57
13 -57 -4 0 -8 22 -22 53 -32 71 -25 76 -25 87 -5 7 14 2 24 -26 46 -19 15
-32 30 -30 32 3 3 21 6 41 8 38 2 57 18 48 42 -4 11 -12 14 -38 13 -3 0 -18 6
-35 15 -35 18 -46 19 -56 4z"/>
<path d="M93 879 c-8 -8 -7 -23 5 -58 10 -25 21 -49 27 -53 13 -9 24 10 18 31
-3 13 6 21 39 31 24 8 46 19 50 24 13 19 -15 24 -55 10 -51 -18 -52 -18 -63 6
-7 16 -12 18 -21 9z"/>
<path d="M239 752 c-8 -9 -30 -34 -48 -55 -28 -31 -31 -40 -21 -52 10 -12 25
-14 69 -9 31 3 62 6 69 7 20 1 14 17 -13 29 -29 13 -41 43 -26 62 19 22 -11
40 -30 18z m-1 -74 c-2 -6 -10 -14 -16 -16 -7 -2 -10 2 -6 12 7 18 28 22 22 4z"/>
<path d="M2106 720 c-3 -8 -4 -24 -2 -35 4 -25 -11 -45 -35 -45 -32 0 -23 -35
9 -37 38 -3 80 -10 90 -17 5 -3 16 2 25 12 15 16 14 20 -6 45 -63 79 -76 92
-81 77z m44 -85 c0 -9 -6 -12 -15 -9 -8 4 -12 10 -9 15 8 14 24 10 24 -6z"/>
<path d="M342 597 c-7 -8 -6 -18 4 -31 21 -30 17 -34 -26 -26 -26 5 -46 3 -56
-5 -15 -10 -14 -15 7 -48 28 -43 47 -53 56 -30 4 9 1 19 -5 21 -7 2 -12 9 -12
16 0 9 14 12 48 11 26 -2 50 2 54 8 5 8 -47 97 -57 97 -2 0 -7 -6 -13 -13z"/>
<path d="M1996 545 c-3 -8 2 -19 12 -24 23 -13 8 -25 -16 -12 -13 7 -22 7 -30
-1 -18 -18 -15 -25 13 -32 15 -4 27 -16 31 -31 6 -23 20 -30 53 -25 27 3 68
70 44 70 -5 0 -26 16 -48 35 -45 39 -50 41 -59 20z m69 -74 c7 -12 -12 -24
-25 -16 -11 7 -4 25 10 25 5 0 11 -4 15 -9z"/>
<path d="M426 417 c-25 -59 -27 -97 -5 -97 6 0 37 14 70 31 59 31 74 56 30 51
-27 -2 -55 23 -48 43 3 7 0 18 -7 24 -10 9 -19 -3 -40 -52z m44 -36 c0 -5 -7
-11 -15 -15 -15 -5 -20 5 -8 17 9 10 23 9 23 -2z"/>
<path d="M1880 427 c0 -7 20 -35 44 -62 35 -39 47 -47 57 -38 10 10 4 21 -26
55 -41 46 -75 66 -75 45z"/>
<path d="M1782 352 c-18 -6 -15 -20 13 -56 29 -39 30 -45 9 -60 -14 -10 -14
-14 -2 -24 12 -9 19 -8 34 7 11 10 30 24 42 30 32 17 29 45 -3 37 -20 -5 -29
0 -52 32 -16 21 -34 37 -41 34z"/>
<path d="M589 321 c-8 -14 -16 -28 -19 -31 -9 -9 -30 -50 -30 -59 0 -19 35
-21 59 -3 48 34 50 34 45 5 -2 -16 -6 -33 -8 -39 -6 -15 11 -39 26 -39 7 0 19
11 26 25 7 13 22 39 33 56 24 39 6 60 -22 26 -16 -21 -36 -31 -25 -14 3 5 7
20 10 35 6 34 -14 36 -55 6 -34 -24 -37 -18 -9 21 19 27 19 28 1 33 -13 3 -23
-3 -32 -22z"/>
<path d="M1975 310 c-8 -13 4 -32 16 -25 12 8 12 35 0 35 -6 0 -13 -4 -16 -10z"/>
<path d="M1657 273 c-8 -13 46 -122 61 -122 16 -1 28 29 16 38 -5 3 -19 24
-31 46 -22 41 -37 53 -46 38z"/>
<path d="M1563 223 c2 -10 8 -27 12 -38 5 -16 1 -14 -19 8 -30 32 -61 37 -53
7 3 -11 1 -22 -4 -25 -4 -3 -6 -13 -3 -23 2 -9 -3 -2 -11 16 -30 64 -50 19
-22 -47 5 -14 11 -28 11 -31 5 -21 19 -29 37 -20 14 8 19 21 19 50 0 22 2 40
5 40 3 0 18 -14 34 -32 37 -41 66 -34 56 14 -4 18 -10 38 -13 43 -4 6 -7 16
-9 24 -2 14 -21 31 -37 31 -4 0 -6 -8 -3 -17z"/>
<path d="M887 204 c-14 -15 -6 -34 14 -34 14 0 19 5 17 17 -3 18 -20 27 -31
17z"/>
<path d="M1290 173 c-73 -28 -51 -143 27 -143 37 0 75 44 69 80 -7 48 -55 79
-96 63z m58 -66 c3 -21 -2 -29 -20 -36 -27 -10 -37 -6 -47 22 -10 28 7 47 39
44 19 -1 26 -8 28 -30z"/>
<path d="M1093 155 c-14 -10 -20 -23 -18 -36 3 -12 6 -22 7 -23 2 -1 16 -8 32
-14 23 -10 26 -16 17 -25 -8 -8 -14 -8 -19 -2 -9 13 -32 13 -32 0 0 -16 28
-45 43 -45 16 0 41 26 50 52 6 17 -15 40 -46 51 -10 4 -15 12 -12 17 5 8 14 6
30 -4 23 -15 35 -12 35 9 0 11 -40 35 -58 35 -4 0 -17 -7 -29 -15z"/>
</g>
</svg>
